<svg width="117" height="55" viewBox="0 0 117 55" fill="none" xmlns="http://www.w3.org/2000/svg">
<path d="M8.0625 6.55664H16.5188C25.4205 6.55664 31.5574 12.4466 31.5574 20.6231C31.5574 28.7995 25.4205 34.6097 16.5188 34.6097H8.0625V6.55664ZM16.5188 31.0404C23.4308 31.0404 27.5779 26.7127 27.5779 20.6231C27.5779 14.5734 23.3903 10.2058 16.5188 10.2058H11.9263V31.0461H16.5188V31.0404Z" fill="#18191C"/>
<path d="M37.1641 6.55664H41.0278V20.7827L54.2386 6.55664H59.0336L47.1242 19.2204L59.6467 34.6097H54.6898L44.3594 21.8262L41.0278 25.3898V34.6097H37.1641V6.55664Z" fill="#18191C"/>
<path d="M63.1016 6.55664H81.6395V10.1203H66.9653V18.4963H79.5283V22.06H66.9653V31.0347H82.2526V34.5983H63.1073V6.55664H63.1016Z" fill="#18191C"/>
<path d="M94.8482 23.3885L83.7891 6.55664H88.584L96.7974 19.42L104.97 6.55664H109.765L98.6657 23.3885V34.6097H94.8424V23.3885H94.8482Z" fill="#18191C"/>
<path d="M22.8906 47.9523V40.0039H26.0429C26.8527 40.0039 27.4774 40.2149 27.917 40.6311C28.3566 41.0473 28.5764 41.6232 28.5764 42.3531C28.5764 43.0829 28.3566 43.6588 27.917 44.075C27.4774 44.497 26.8527 44.7079 26.0429 44.7079H23.9896V47.9523H22.8906ZM23.9896 43.8127H26.0198C26.5114 43.8127 26.8816 43.6759 27.1246 43.4079C27.3675 43.1342 27.489 42.7864 27.489 42.3531C27.489 41.9254 27.3675 41.5776 27.1246 41.3096C26.8816 41.0416 26.5114 40.9105 26.0198 40.9105H23.9896V43.8127Z" fill="#18191C"/>
<path d="M30.5938 47.9523V40.0039H33.7461C34.5558 40.0039 35.1805 40.2149 35.6201 40.6311C36.0597 41.0473 36.2795 41.6232 36.2795 42.3531C36.2795 43.0829 36.0597 43.6588 35.6201 44.075C35.1805 44.497 34.5558 44.7079 33.7461 44.7079H31.6927V47.9523H30.5938ZM31.6927 43.8127H33.7229C34.2146 43.8127 34.5848 43.6759 34.8277 43.4079C35.0706 43.1342 35.1921 42.7864 35.1921 42.3531C35.1921 41.9254 35.0706 41.5776 34.8277 41.3096C34.5848 41.0416 34.2146 40.9105 33.7229 40.9105H31.6927V43.8127ZM36.748 47.9523H35.649L33.6362 44.1377H34.6079L36.748 47.9523Z" fill="#18191C"/>
<path d="M43.517 40.2552C43.9797 40.4604 44.3614 40.7455 44.6622 41.1161C44.963 41.4868 45.1828 41.9144 45.3331 42.3991C45.4777 42.8894 45.5529 43.414 45.5529 43.9785C45.5529 44.543 45.4777 45.0732 45.3331 45.5579C45.1885 46.0425 44.963 46.4759 44.6622 46.8408C44.3614 47.2057 43.9797 47.4908 43.5227 47.7018C43.06 47.907 42.5163 48.0097 41.8916 48.0097C41.2669 48.0097 40.7175 47.907 40.2605 47.7018C39.7978 47.4965 39.4218 47.2114 39.1153 46.8408C38.8145 46.4759 38.5889 46.0482 38.4385 45.5579C38.2882 45.0675 38.2188 44.543 38.2188 43.9785C38.2188 43.414 38.2939 42.8894 38.4385 42.3991C38.5889 41.9144 38.8087 41.4811 39.1095 41.1161C39.4103 40.7455 39.792 40.4604 40.2547 40.2552C40.7175 40.0499 41.2612 39.9473 41.8916 39.9473C42.5105 39.9473 43.0542 40.0499 43.517 40.2552ZM40.4572 41.2473C40.0754 41.5096 39.7862 41.8688 39.5954 42.3363C39.4045 42.8039 39.3062 43.3513 39.3062 43.9785C39.3062 44.6057 39.4045 45.1588 39.5954 45.6263C39.7862 46.0939 40.0754 46.4588 40.4572 46.7211C40.8389 46.9833 41.3132 47.1088 41.8858 47.1088C42.4585 47.1088 42.9328 46.9776 43.3145 46.7211C43.6963 46.4588 43.9797 46.0996 44.1705 45.6263C44.3614 45.1588 44.4598 44.6114 44.4598 43.9785C44.4598 43.3456 44.3614 42.7982 44.1705 42.3363C43.9797 41.8688 43.6905 41.5039 43.3087 41.2473C42.927 40.9907 42.4527 40.8596 41.8858 40.8596C41.319 40.8596 40.8389 40.9907 40.4572 41.2473Z" fill="#18191C"/>
<path d="M47.7812 47.9523V40.0039H50.9336C51.7433 40.0039 52.368 40.2149 52.8076 40.6311C53.2472 41.0473 53.467 41.6232 53.467 42.3531C53.467 43.0829 53.2472 43.6588 52.8076 44.075C52.368 44.497 51.7433 44.7079 50.9336 44.7079H48.8802V47.9523H47.7812ZM48.8744 43.8127H50.9046C51.3963 43.8127 51.7665 43.6759 52.0094 43.4079C52.2523 43.1342 52.3738 42.7864 52.3738 42.3531C52.3738 41.9254 52.2523 41.5776 52.0094 41.3096C51.7665 41.0416 51.3963 40.9105 50.9046 40.9105H48.8744V43.8127Z" fill="#18191C"/>
<path d="M60.623 47.9523H55.6719V40.0039H60.623V40.9105H56.7593V43.5562H60.2933V44.4114H56.7593V47.0628H60.623V47.9523Z" fill="#18191C"/>
<path d="M62.3984 47.9523V40.0039H65.5508C66.3605 40.0039 66.9852 40.2149 67.4248 40.6311C67.8644 41.0473 68.0842 41.6232 68.0842 42.3531C68.0842 43.0829 67.8644 43.6588 67.4248 44.075C66.9852 44.4913 66.3605 44.7079 65.5508 44.7079H63.4974V47.9523H62.3984ZM63.4916 43.8127H65.5218C66.0135 43.8127 66.3837 43.6759 66.6266 43.4079C66.8695 43.1342 66.9968 42.7864 66.9968 42.3531C66.9968 41.9254 66.8753 41.5776 66.6266 41.3096C66.3837 41.0416 66.0135 40.9105 65.5218 40.9105H63.4916V43.8127ZM68.5469 47.9523H67.4479L65.4351 44.1377H66.4068L68.5469 47.9523Z" fill="#18191C"/>
<path d="M72.57 47.9523V40.9105H69.6953V40.0039H76.5379V40.9105H73.6632V47.9523H72.57Z" fill="#18191C"/>
<path d="M78.875 47.9523V40.0039H79.9682V47.9523H78.875Z" fill="#18191C"/>
<path d="M87.8418 47.9523H82.8906V40.0039H87.8418V40.9105H83.978V43.5562H87.5121V44.4114H83.978V47.0628H87.8418V47.9523Z" fill="#18191C"/>
<path d="M90.3961 45.5577C90.3961 45.8998 90.4829 46.1849 90.6564 46.413C90.83 46.6411 91.0671 46.8178 91.3563 46.9319C91.6513 47.0516 91.981 47.1086 92.3512 47.1086C92.6751 47.1086 92.9701 47.063 93.2361 46.9661C93.5022 46.8749 93.7162 46.7323 93.8782 46.5498C94.0401 46.3617 94.1211 46.1279 94.1211 45.8371C94.1211 45.5406 94.0228 45.3068 93.8203 45.1244C93.6237 44.9476 93.3749 44.8051 93.08 44.6967C92.785 44.5884 92.49 44.4972 92.2008 44.4117C91.8826 44.3261 91.5703 44.2235 91.2522 44.1152C90.9341 44.0011 90.6449 43.8586 90.3788 43.6875C90.1127 43.5165 89.8987 43.2998 89.7368 43.0375C89.5748 42.7752 89.4996 42.4616 89.4996 42.0853C89.4996 41.6406 89.6153 41.2528 89.8524 40.9335C90.0896 40.6142 90.4077 40.369 90.8068 40.198C91.2059 40.0269 91.6513 39.9414 92.1429 39.9414C92.6982 39.9414 93.1956 40.0383 93.6352 40.2379C94.0748 40.4375 94.4161 40.7112 94.6706 41.0647C94.9251 41.4182 95.0523 41.8401 95.0523 42.3191H93.9765C93.9765 42.0169 93.9013 41.7546 93.7451 41.5322C93.589 41.3098 93.3807 41.1388 93.1147 41.0191C92.8486 40.8993 92.5478 40.8423 92.2066 40.8423C91.9 40.8423 91.6224 40.8879 91.3737 40.9848C91.1249 41.0818 90.9341 41.2186 90.7952 41.4011C90.6564 41.5835 90.587 41.8059 90.587 42.0682C90.587 42.359 90.6911 42.5985 90.8936 42.7752C91.096 42.952 91.3505 43.1002 91.6513 43.2086C91.9521 43.3169 92.247 43.4195 92.5478 43.5051C92.8602 43.5906 93.1725 43.6932 93.4848 43.813C93.7972 43.9327 94.0864 44.0752 94.3467 44.2463C94.6069 44.4174 94.8152 44.634 94.9713 44.8906C95.1275 45.1472 95.2027 45.4608 95.2027 45.8314C95.2027 46.202 95.1275 46.5213 94.9771 46.7893C94.8267 47.0573 94.6185 47.2854 94.3524 47.4621C94.0864 47.6389 93.7856 47.7757 93.4501 47.867C93.1147 47.9582 92.7618 48.0038 92.3916 48.0038C91.819 48.0038 91.2985 47.9126 90.8357 47.7244C90.373 47.5363 90.0028 47.2626 89.731 46.8977C89.4591 46.5327 89.3203 46.0823 89.3203 45.5406H90.3961V45.5577Z" fill="#18191C"/>
</svg>
