<svg width="117" height="55" viewBox="0 0 117 55" fill="none" xmlns="http://www.w3.org/2000/svg">
<path d="M8.0625 6.55664H16.5188C25.4205 6.55664 31.5574 12.4466 31.5574 20.6231C31.5574 28.7995 25.4205 34.6097 16.5188 34.6097H8.0625V6.55664ZM16.5188 31.0404C23.4308 31.0404 27.5779 26.7127 27.5779 20.6231C27.5779 14.5734 23.3903 10.2058 16.5188 10.2058H11.9263V31.0461H16.5188V31.0404Z" fill="white"/>
<path d="M37.168 6.55664H41.0317V20.7827L54.2425 6.55664H59.0375L47.1281 19.2204L59.6506 34.6097H54.6937L44.3633 21.8262L41.0317 25.3898V34.6097H37.168V6.55664Z" fill="white"/>
<path d="M63.0977 6.55664H81.6356V10.1203H66.9614V18.4963H79.5244V22.06H66.9614V31.0347H82.2487V34.5983H63.1034V6.55664H63.0977Z" fill="white"/>
<path d="M94.8482 23.3885L83.7891 6.55664H88.584L96.7974 19.42L104.97 6.55664H109.765L98.6657 23.3885V34.6097H94.8424V23.3885H94.8482Z" fill="white"/>
<path d="M22.8867 47.9523V40.0039H26.039C26.8488 40.0039 27.4735 40.2149 27.9131 40.6311C28.3527 41.0473 28.5725 41.6232 28.5725 42.3531C28.5725 43.0829 28.3527 43.6588 27.9131 44.075C27.4735 44.497 26.8488 44.7079 26.039 44.7079H23.9857V47.9523H22.8867ZM23.9857 43.8127H26.0159C26.5075 43.8127 26.8777 43.6759 27.1207 43.4079C27.3636 43.1342 27.485 42.7864 27.485 42.3531C27.485 41.9254 27.3636 41.5776 27.1207 41.3096C26.8777 41.0416 26.5075 40.9105 26.0159 40.9105H23.9857V43.8127Z" fill="white"/>
<path d="M30.5898 47.9523V40.0039H33.7422C34.5519 40.0039 35.1766 40.2149 35.6162 40.6311C36.0558 41.0473 36.2756 41.6232 36.2756 42.3531C36.2756 43.0829 36.0558 43.6588 35.6162 44.075C35.1766 44.497 34.5519 44.7079 33.7422 44.7079H31.6888V47.9523H30.5898ZM31.6888 43.8127H33.719C34.2107 43.8127 34.5808 43.6759 34.8238 43.4079C35.0667 43.1342 35.1882 42.7864 35.1882 42.3531C35.1882 41.9254 35.0667 41.5776 34.8238 41.3096C34.5808 41.0416 34.2107 40.9105 33.719 40.9105H31.6888V43.8127ZM36.7441 47.9523H35.6451L33.6323 44.1377H34.604L36.7441 47.9523Z" fill="white"/>
<path d="M43.513 40.2552C43.9758 40.4604 44.3575 40.7455 44.6583 41.1161C44.9591 41.4868 45.1789 41.9144 45.3292 42.3991C45.4738 42.8894 45.549 43.414 45.549 43.9785C45.549 44.543 45.4738 45.0732 45.3292 45.5579C45.1846 46.0425 44.9591 46.4759 44.6583 46.8408C44.3575 47.2057 43.9758 47.4908 43.5188 47.7018C43.0561 47.907 42.5124 48.0097 41.8877 48.0097C41.263 48.0097 40.7136 47.907 40.2566 47.7018C39.7939 47.4965 39.4179 47.2114 39.1114 46.8408C38.8106 46.4759 38.585 46.0482 38.4346 45.5579C38.2843 45.0675 38.2148 44.543 38.2148 43.9785C38.2148 43.414 38.29 42.8894 38.4346 42.3991C38.585 41.9144 38.8048 41.4811 39.1056 41.1161C39.4064 40.7455 39.7881 40.4604 40.2508 40.2552C40.7136 40.0499 41.2573 39.9473 41.8877 39.9473C42.5066 39.9473 43.0503 40.0499 43.513 40.2552ZM40.4533 41.2473C40.0715 41.5096 39.7823 41.8688 39.5914 42.3363C39.4006 42.8039 39.3022 43.3513 39.3022 43.9785C39.3022 44.6057 39.4006 45.1588 39.5914 45.6263C39.7823 46.0939 40.0715 46.4588 40.4533 46.7211C40.835 46.9833 41.3093 47.1088 41.8819 47.1088C42.4546 47.1088 42.9289 46.9776 43.3106 46.7211C43.6923 46.4588 43.9758 46.0996 44.1666 45.6263C44.3575 45.1588 44.4558 44.6114 44.4558 43.9785C44.4558 43.3456 44.3575 42.7982 44.1666 42.3363C43.9758 41.8688 43.6866 41.5039 43.3048 41.2473C42.9231 40.9907 42.4488 40.8596 41.8819 40.8596C41.3151 40.8596 40.835 40.9907 40.4533 41.2473Z" fill="white"/>
<path d="M47.7773 47.9523V40.0039H50.9297C51.7394 40.0039 52.3641 40.2149 52.8037 40.6311C53.2433 41.0473 53.4631 41.6232 53.4631 42.3531C53.4631 43.0829 53.2433 43.6588 52.8037 44.075C52.3641 44.497 51.7394 44.7079 50.9297 44.7079H48.8763V47.9523H47.7773ZM48.8705 43.8127H50.9007C51.3924 43.8127 51.7626 43.6759 52.0055 43.4079C52.2484 43.1342 52.3699 42.7864 52.3699 42.3531C52.3699 41.9254 52.2484 41.5776 52.0055 41.3096C51.7626 41.0416 51.3924 40.9105 50.9007 40.9105H48.8705V43.8127Z" fill="white"/>
<path d="M60.6152 47.9523H55.6641V40.0039H60.6152V40.9105H56.7515V43.5562H60.2855V44.4114H56.7515V47.0628H60.6152V47.9523Z" fill="white"/>
<path d="M62.3984 47.9523V40.0039H65.5508C66.3605 40.0039 66.9852 40.2149 67.4248 40.6311C67.8644 41.0473 68.0842 41.6232 68.0842 42.3531C68.0842 43.0829 67.8644 43.6588 67.4248 44.075C66.9852 44.4913 66.3605 44.7079 65.5508 44.7079H63.4974V47.9523H62.3984ZM63.4916 43.8127H65.5218C66.0135 43.8127 66.3837 43.6759 66.6266 43.4079C66.8695 43.1342 66.9968 42.7864 66.9968 42.3531C66.9968 41.9254 66.8753 41.5776 66.6266 41.3096C66.3837 41.0416 66.0135 40.9105 65.5218 40.9105H63.4916V43.8127ZM68.5469 47.9523H67.4479L65.4351 44.1377H66.4068L68.5469 47.9523Z" fill="white"/>
<path d="M72.5661 47.9523V40.9105H69.6914V40.0039H76.534V40.9105H73.6593V47.9523H72.5661Z" fill="white"/>
<path d="M78.8711 47.9523V40.0039H79.9643V47.9523H78.8711Z" fill="white"/>
<path d="M87.8418 47.9523H82.8906V40.0039H87.8418V40.9105H83.978V43.5562H87.5121V44.4114H83.978V47.0628H87.8418V47.9523Z" fill="white"/>
<path d="M90.3922 45.5577C90.3922 45.8998 90.479 46.1849 90.6525 46.413C90.826 46.6411 91.0632 46.8178 91.3524 46.9319C91.6474 47.0516 91.9771 47.1086 92.3473 47.1086C92.6712 47.1086 92.9662 47.063 93.2322 46.9661C93.4983 46.8749 93.7123 46.7323 93.8742 46.5498C94.0362 46.3617 94.1172 46.1279 94.1172 45.8371C94.1172 45.5406 94.0188 45.3068 93.8164 45.1244C93.6197 44.9476 93.371 44.8051 93.076 44.6967C92.7811 44.5884 92.4861 44.4972 92.1969 44.4117C91.8787 44.3261 91.5664 44.2235 91.2483 44.1152C90.9302 44.0011 90.641 43.8586 90.3749 43.6875C90.1088 43.5165 89.8948 43.2998 89.7329 43.0375C89.5709 42.7752 89.4957 42.4616 89.4957 42.0853C89.4957 41.6406 89.6114 41.2528 89.8485 40.9335C90.0857 40.6142 90.4038 40.369 90.8029 40.198C91.202 40.0269 91.6474 39.9414 92.139 39.9414C92.6943 39.9414 93.1917 40.0383 93.6313 40.2379C94.0709 40.4375 94.4122 40.7112 94.6667 41.0647C94.9212 41.4182 95.0484 41.8401 95.0484 42.3191H93.9726C93.9726 42.0169 93.8974 41.7546 93.7412 41.5322C93.585 41.3098 93.3768 41.1388 93.1107 41.0191C92.8447 40.8993 92.5439 40.8423 92.2027 40.8423C91.8961 40.8423 91.6185 40.8879 91.3697 40.9848C91.121 41.0818 90.9302 41.2186 90.7913 41.4011C90.6525 41.5835 90.5831 41.8059 90.5831 42.0682C90.5831 42.359 90.6872 42.5985 90.8897 42.7752C91.0921 42.952 91.3466 43.1002 91.6474 43.2086C91.9482 43.3169 92.2431 43.4195 92.5439 43.5051C92.8563 43.5906 93.1686 43.6932 93.4809 43.813C93.7933 43.9327 94.0825 44.0752 94.3428 44.2463C94.603 44.4174 94.8113 44.634 94.9674 44.8906C95.1236 45.1472 95.1988 45.4608 95.1988 45.8314C95.1988 46.202 95.1236 46.5213 94.9732 46.7893C94.8228 47.0573 94.6146 47.2854 94.3485 47.4621C94.0825 47.6389 93.7817 47.7757 93.4462 47.867C93.1108 47.9582 92.7579 48.0038 92.3877 48.0038C91.8151 48.0038 91.2946 47.9126 90.8318 47.7244C90.3691 47.5363 89.9989 47.2626 89.7271 46.8977C89.4552 46.5327 89.3164 46.0823 89.3164 45.5406H90.3922V45.5577Z" fill="white"/>
</svg>
