<svg width="110" height="110" viewBox="0 0 110 110" fill="none" xmlns="http://www.w3.org/2000/svg">
<g clip-path="url(#clip0_5051_125390)">
<g clip-path="url(#clip1_5051_125390)">
<g clip-path="url(#clip2_5051_125390)">
<path d="M46.4798 109.938C45.7256 109.718 45.5684 109.529 41.9544 104.627C40.2259 102.301 38.7803 100.384 38.686 100.384C38.5918 100.384 38.5289 102.49 38.5289 105.067V109.749H35.6691V89.8562H36.6119C37.429 89.8562 37.6175 89.9191 38.0575 90.4219L38.5603 90.9876V94.6016C38.5603 96.5815 38.6232 98.2157 38.7175 98.2157C38.8117 98.2157 40.3517 96.4872 42.143 94.3188C45.4427 90.3905 46.2284 89.6991 47.0141 89.9505C47.7997 90.2019 48.6482 90.7047 48.6482 90.8933C48.6482 91.019 47.0769 92.9046 45.1913 95.1359L41.7344 99.1585L45.4427 104.187C47.4855 106.952 49.1511 109.309 49.1511 109.372C49.1196 109.781 47.3283 110.158 46.4798 109.938ZM0 99.9756V90.2333L0.471398 90.0134C1.31991 89.6991 2.26271 89.8876 2.85981 90.5476C3.11123 90.8619 4.93396 93.7845 6.91383 97.0529C8.8937 100.321 10.685 103.307 10.9364 103.684L11.3764 104.375L11.4707 97.1472L11.565 89.9505L12.1306 89.8876C12.5078 89.8562 12.8534 89.9191 13.1991 90.0448C14.2048 90.5162 14.1734 90.2333 14.1734 100.416V109.718H11.5021L7.25953 102.804L2.95409 95.9215L2.92267 102.804L2.89124 109.686H0V99.9756ZM16.7189 109.372C16.7818 109.184 18.2902 104.815 20.0501 99.6299L23.287 90.2333L23.947 90.0134C24.7012 89.7619 25.4869 89.8876 26.1469 90.2962C26.4297 90.5162 27.3411 92.9674 29.7609 99.9127C31.5208 105.035 32.9664 109.341 32.9664 109.466C32.9664 109.592 32.5579 109.718 31.4579 109.718H29.9495L29.0695 107.172L28.1896 104.658L24.7641 104.721L21.3386 104.784L20.4901 107.267L19.6416 109.749H18.1331C16.7503 109.749 16.6246 109.718 16.7189 109.372ZM27.2468 101.735C27.2468 101.547 24.9212 94.4445 24.7955 94.3502C24.7327 94.2874 23.6642 97.43 22.5957 100.698L22.1871 101.924H24.7012C26.1154 101.924 27.2468 101.83 27.2468 101.735ZM52.168 99.787V89.8562H53.0794C53.8022 89.8562 54.085 89.9505 54.4622 90.3276L54.9336 90.799L55.0278 94.3816L55.1221 97.9643L59.1133 98.0271L63.1044 98.09V89.8876H64.0472C64.8643 89.8876 65.0529 89.9505 65.4929 90.4533L65.9957 91.019V109.749H63.1359V100.981L59.1447 101.044L55.1535 101.107L55.1221 105.444L55.0907 109.781H52.168V99.787ZM69.4212 109.466C69.3897 109.341 69.3583 104.91 69.3897 99.6613L69.4212 90.1076L74.9208 90.0448L80.4205 89.9819V90.6419C80.4205 91.5533 80.1376 92.2132 79.6348 92.496C79.3834 92.6217 77.9378 92.716 75.7693 92.716H72.3124V97.9643H78.3777V100.887H72.3124V106.921H75.9265C80.4519 106.921 80.7033 107.015 80.7033 108.901V109.655H75.0465C70.7411 109.718 69.4526 109.655 69.4212 109.466ZM83.9717 99.8813V90.0448L89.4713 90.1076L94.9709 90.1705L94.9395 91.019C94.9395 91.7104 94.8138 91.9618 94.4681 92.3389C94.0281 92.7789 93.9339 92.7789 90.4769 92.7789H86.9257V98.0271H92.9911L92.9282 99.4413L92.8654 100.855L89.8798 100.918L86.8943 100.981V107.015H94.311L94.8138 107.581C95.1595 107.958 95.348 108.429 95.3166 108.932V109.718H83.8774L83.9717 99.8813ZM98.5536 109.592C98.4907 109.529 98.4278 105.098 98.4278 99.7556V90.0448L98.8678 89.8562C99.4649 89.6048 100.376 89.8248 100.911 90.359L101.351 90.799L101.445 98.8442L101.539 106.889L105.027 106.984C108.327 107.078 108.547 107.109 108.893 107.518C109.176 107.864 109.301 108.335 109.27 108.775V109.623L103.959 109.686C101.068 109.686 98.6164 109.655 98.5536 109.592ZM49.3711 81.1511C41.4516 79.7683 34.9149 74.3315 31.6151 66.3492C28.661 59.1525 28.7238 51.0759 31.8036 43.9421C33.9092 39.0081 37.6175 34.9541 42.3001 32.3457C43.9343 31.4343 47.5169 30.0201 48.8682 29.7373C49.4339 29.6116 49.3082 29.7373 48.114 30.4287C45.2856 32.0943 42.3629 36.0855 40.9802 40.2023C39.5346 44.4449 39.1889 49.3789 40.0374 52.9929C40.5088 55.1614 41.5459 57.2041 43.0543 58.8697C44.2485 60.2524 44.7514 60.6924 46.0713 61.4467C47.7997 62.4209 49.4339 62.9237 51.0367 62.9237C52.0737 62.9237 53.2994 62.6409 53.2994 62.3894C53.0165 62.0752 52.6708 61.8238 52.3251 61.6038C50.2824 60.2524 48.3026 57.7383 47.1083 55.0356C45.3799 51.0759 45.7884 46.8647 48.2711 43.0307C48.9625 41.9622 49.3082 41.6479 48.9625 42.4336C48.5225 43.4078 48.2083 45.922 48.3026 47.839C48.4283 51.0445 49.591 54.1243 51.6338 56.5755C55.5935 61.6038 61.3446 62.9865 66.1528 60.0953C67.6927 59.1525 69.3897 57.2355 70.0811 55.6642C70.5211 54.5957 70.584 54.3128 70.584 52.3644C70.584 50.4159 70.5525 50.1331 70.0811 49.0332C68.5412 45.482 64.7072 43.0307 60.6532 43.0307C57.4162 43.0307 54.2422 44.5706 52.828 46.8333C52.2309 47.7761 52.168 47.5876 52.0423 45.1363C51.8223 40.8937 53.1108 37.2797 55.9078 34.2313C57.4162 32.5657 59.3647 31.3715 61.5017 30.7115C63.0416 30.2715 65.8385 30.2715 67.3784 30.7115C70.0811 31.4343 73.1295 33.7285 74.5751 36.1169C75.6436 37.9082 75.7065 38.0653 74.7323 36.8397C72.5324 34.0427 68.6984 32.4086 65.6186 32.9428C63.1044 33.3828 61.2189 34.4827 59.4904 36.5254C58.4847 37.7196 57.0391 40.2023 57.2591 40.4537C57.6991 40.4537 58.1391 40.4223 58.579 40.328C60.8732 39.9509 64.5815 40.4223 67.127 41.428C69.2326 42.2136 71.1182 43.5335 72.5638 45.2306C74.2294 47.1476 74.9208 48.5618 75.3608 50.9816C76.4293 57.0155 72.3124 62.578 65.5871 64.2436C62.7902 64.9036 59.8675 64.8093 57.102 63.9608L55.9078 63.6151L54.6507 64.3379C51.5395 66.1292 47.7369 66.3492 44.4371 64.935C40.9173 63.4265 38.1832 60.001 36.8633 55.3813C36.3919 53.7472 36.3291 53.2129 36.2662 50.6674C36.1719 46.7705 36.4862 44.6335 37.9947 39.8881C38.0575 39.6681 37.6175 40.108 37.0204 40.7994C34.5692 43.785 33.2178 48.5304 33.2178 54.2186C33.155 56.5755 33.4692 58.9011 34.1292 61.1638C36.2662 68.5805 42.4572 74.6144 49.4339 76.1543C55.7192 77.537 63.2302 75.8086 68.6669 71.7231C71.2125 69.8061 74.1666 66.5377 75.5179 64.1808C76.0836 63.2065 76.1779 63.1751 75.8322 64.1179C74.8894 66.7263 72.5953 70.4975 70.4268 72.9802C68.3841 75.3372 66.6242 76.8142 64.2358 78.197C60.3703 80.4283 57.7934 81.1197 53.1422 81.2139C51.3195 81.2139 49.6539 81.2139 49.3711 81.1511ZM52.9223 73.263C51.8852 72.8231 50.7224 71.5974 50.1253 70.3404C49.9996 70.0889 50.1567 70.1204 50.9424 70.5289C52.3251 71.2831 54.8078 71.3774 56.3477 70.7803C57.542 70.3404 58.579 69.5547 59.3647 68.549L59.8989 67.8577V68.5176C59.8989 69.3976 59.1761 71.0317 58.4533 71.786C57.5105 72.8231 56.1906 73.4516 54.7764 73.483C54.1479 73.4516 53.5194 73.3887 52.9223 73.263ZM29.5095 65.9406C28.001 62.798 26.9954 59.4039 26.524 55.947C26.2097 53.5586 26.2097 49.2846 26.524 47.1162C27.6553 39.5424 31.7722 32.44 37.6175 27.8517C39.6603 26.2804 41.263 25.3376 46.0398 23.1063C52.4823 20.0579 54.8707 18.5495 56.5677 16.4125C58.1076 14.464 58.6105 12.6413 58.1705 10.5671C58.0762 10.1586 58.0133 9.78146 57.9505 9.37291C58.0762 9.37291 59.4275 12.0127 59.8361 12.987C60.2446 13.9612 60.3075 14.4326 60.3075 15.8153C60.3075 17.1981 60.2446 17.6067 59.8675 18.4552C58.7047 21.0007 56.1278 22.6978 48.4597 25.9347C41.2316 28.9831 37.3976 31.5286 33.9721 35.4569C30.5466 39.3852 28.7553 43.345 27.8439 48.9075C27.3725 51.673 27.4354 56.8898 27.9067 59.5611C28.3153 61.7923 28.9438 63.9922 29.7923 66.0978C30.4837 67.6691 30.2637 67.5434 29.5095 65.9406ZM65.7757 39.4795C65.7757 39.0395 66.5928 37.0597 67.0013 36.494C67.567 35.6769 68.5098 35.2055 69.5154 35.2684C70.6468 35.2684 70.8039 35.4255 70.0811 35.834C69.6726 36.054 69.3583 36.5254 68.9498 37.4996C68.2898 39.0395 67.6613 39.5738 66.4671 39.5738C66.2471 39.6052 65.9957 39.5738 65.7757 39.4795ZM59.1133 27.946C59.7418 25.1176 61.2189 23.7348 63.3244 24.0805L64.1729 24.2062L63.6387 24.4262C62.9159 24.7091 62.7588 24.929 62.1617 26.3432C61.596 27.6946 61.0931 28.1345 59.8361 28.3545L59.019 28.4802L59.1133 27.946ZM38.9375 24.5833C39.0317 24.4891 40.6031 23.1377 42.4572 21.6293C46.6998 18.1409 48.6483 16.3496 50.471 14.2126C53.7393 10.4414 54.8393 7.01593 53.6451 4.25039L53.2679 3.40188L54.1479 4.3761C54.745 5.09891 55.2478 5.88457 55.6249 6.76451C56.1906 8.11585 56.222 8.24156 56.1592 9.87574C56.0963 11.2585 56.002 11.8242 55.5935 12.7041C54.525 15.2182 52.2623 17.3238 48.3654 19.398C47.1712 20.0265 44.4999 21.5035 42.4886 22.6663C40.4774 23.8291 38.8432 24.7091 38.9375 24.5833ZM45.2542 15.4382C48.0826 11.6042 49.1825 9.27863 49.6225 6.23026C49.8425 4.53323 49.591 2.80477 48.9625 1.23345L48.4597 0.0078125L48.9625 0.322078C49.9367 0.982034 50.7538 1.92483 51.2566 2.99333C52.7966 6.48168 50.8481 10.9128 45.9456 15.2182L44.5 16.4753L45.2542 15.4382Z" fill="white"/>
</g>
</g>
</g>
<defs>
<clipPath id="clip0_5051_125390">
<rect width="110" height="110" fill="white"/>
</clipPath>
<clipPath id="clip1_5051_125390">
<rect width="109.27" height="110" fill="white"/>
</clipPath>
<clipPath id="clip2_5051_125390">
<rect width="109.27" height="109.993" fill="white" transform="translate(0 0.0078125)"/>
</clipPath>
</defs>
</svg>
